<svg width="31" height="31" viewBox="0 0 31 31" fill="#fbfee7" xmlns="http://www.w3.org/2000/svg">
<path d="M30.7156 24.9037L21.3119 15.5L30.7156 6.09633C30.8958 5.91393 30.9968 5.66787 30.9968 5.41149C30.9968 5.1551 30.8958 4.90905 30.7156 4.72665L26.2733 0.284413C26.1835 0.194265 26.0768 0.122737 25.9593 0.0739302C25.8418 0.0251238 25.7158 0 25.5885 0C25.4613 0 25.3353 0.0251238 25.2177 0.0739302C25.1002 0.122737 24.9935 0.194265 24.9037 0.284413L15.5 9.68809L6.09633 0.284413C5.91468 0.102819 5.66834 0.000804793 5.41149 0.000804793C5.15464 0.000804793 4.9083 0.102819 4.72665 0.284413L0.284413 4.72665C0.194265 4.81647 0.122737 4.92319 0.0739302 5.04071C0.0251238 5.15824 0 5.28424 0 5.41149C0 5.53874 0.0251238 5.66474 0.0739302 5.78226C0.122737 5.89978 0.194265 6.00651 0.284413 6.09633L9.68809 15.5L0.284413 24.9037C0.102819 25.0853 0.000804793 25.3317 0.000804793 25.5885C0.000804793 25.8454 0.102819 26.0917 0.284413 26.2733L4.72665 30.7156C4.81647 30.8057 4.92319 30.8773 5.04071 30.9261C5.15824 30.9749 5.28424 31 5.41149 31C5.53874 31 5.66474 30.9749 5.78226 30.9261C5.89978 30.8773 6.00651 30.8057 6.09633 30.7156L15.5 21.3119L24.9037 30.7156C25.0853 30.8972 25.3317 30.9992 25.5885 30.9992C25.8454 30.9992 26.0917 30.8972 26.2733 30.7156L30.7156 26.2733C30.8057 26.1835 30.8773 26.0768 30.9261 25.9593C30.9749 25.8418 31 25.7158 31 25.5885C31 25.4613 30.9749 25.3353 30.9261 25.2177C30.8773 25.1002 30.8057 24.9935 30.7156 24.9037Z" />
</svg>
