<svg width="28" height="31" viewBox="0 0 28 31" fill="#52564A" xmlns="http://www.w3.org/2000/svg">
<path fill-rule="evenodd" clip-rule="evenodd" d="M6.60333 0H21.3967C23.1996 0 24.1002 1.61674e-07 24.8282 0.252645C25.5146 0.495041 26.1357 0.891872 26.6432 1.4123C27.1506 1.93273 27.5308 2.56274 27.7542 3.25338C28 4.00046 28 4.92424 28 6.77335V28.4791C28 29.8089 26.4678 30.5157 25.4987 29.6323C25.2268 29.3819 24.8702 29.2429 24.5 29.2429C24.1298 29.2429 23.7732 29.3819 23.5013 29.6323L22.75 30.3173C22.2737 30.7562 21.6488 31 21 31C20.3512 31 19.7263 30.7562 19.25 30.3173C18.7737 29.8784 18.1488 29.6347 17.5 29.6347C16.8512 29.6347 16.2263 29.8784 15.75 30.3173C15.2737 30.7562 14.6488 31 14 31C13.3512 31 12.7263 30.7562 12.25 30.3173C11.7737 29.8784 11.1488 29.6347 10.5 29.6347C9.85123 29.6347 9.22632 29.8784 8.75 30.3173C8.27368 30.7562 7.64877 31 7 31C6.35123 31 5.72632 30.7562 5.25 30.3173L4.49867 29.6323C4.22678 29.3819 3.87019 29.2429 3.5 29.2429C3.12981 29.2429 2.77322 29.3819 2.50133 29.6323C1.53222 30.5157 0 29.8089 0 28.4791V6.77335C0 4.92424 -2.31796e-08 3.99891 0.245778 3.25493C0.712444 1.83981 1.79356 0.730034 3.17178 0.252645C3.89978 1.61674e-07 4.80044 0 6.60333 0ZM6.22222 7.36234C5.9128 7.36234 5.61606 7.48481 5.39726 7.70282C5.17847 7.92083 5.05556 8.21651 5.05556 8.52481C5.05556 8.83312 5.17847 9.1288 5.39726 9.34681C5.61606 9.56481 5.9128 9.68729 6.22222 9.68729H7C7.30942 9.68729 7.60617 9.56481 7.82496 9.34681C8.04375 9.1288 8.16667 8.83312 8.16667 8.52481C8.16667 8.21651 8.04375 7.92083 7.82496 7.70282C7.60617 7.48481 7.30942 7.36234 7 7.36234H6.22222ZM11.6667 7.36234C11.3572 7.36234 11.0605 7.48481 10.8417 7.70282C10.6229 7.92083 10.5 8.21651 10.5 8.52481C10.5 8.83312 10.6229 9.1288 10.8417 9.34681C11.0605 9.56481 11.3572 9.68729 11.6667 9.68729H21.7778C22.0872 9.68729 22.3839 9.56481 22.6027 9.34681C22.8215 9.1288 22.9444 8.83312 22.9444 8.52481C22.9444 8.21651 22.8215 7.92083 22.6027 7.70282C22.3839 7.48481 22.0872 7.36234 21.7778 7.36234H11.6667ZM6.22222 12.7872C5.9128 12.7872 5.61606 12.9097 5.39726 13.1277C5.17847 13.3457 5.05556 13.6414 5.05556 13.9497C5.05556 14.258 5.17847 14.5537 5.39726 14.7717C5.61606 14.9897 5.9128 15.1122 6.22222 15.1122H7C7.30942 15.1122 7.60617 14.9897 7.82496 14.7717C8.04375 14.5537 8.16667 14.258 8.16667 13.9497C8.16667 13.6414 8.04375 13.3457 7.82496 13.1277C7.60617 12.9097 7.30942 12.7872 7 12.7872H6.22222ZM11.6667 12.7872C11.3572 12.7872 11.0605 12.9097 10.8417 13.1277C10.6229 13.3457 10.5 13.6414 10.5 13.9497C10.5 14.258 10.6229 14.5537 10.8417 14.7717C11.0605 14.9897 11.3572 15.1122 11.6667 15.1122H21.7778C22.0872 15.1122 22.3839 14.9897 22.6027 14.7717C22.8215 14.5537 22.9444 14.258 22.9444 13.9497C22.9444 13.6414 22.8215 13.3457 22.6027 13.1277C22.3839 12.9097 22.0872 12.7872 21.7778 12.7872H11.6667ZM6.22222 18.2121C5.9128 18.2121 5.61606 18.3346 5.39726 18.5526C5.17847 18.7706 5.05556 19.0663 5.05556 19.3746C5.05556 19.6829 5.17847 19.9786 5.39726 20.1966C5.61606 20.4146 5.9128 20.5371 6.22222 20.5371H7C7.30942 20.5371 7.60617 20.4146 7.82496 20.1966C8.04375 19.9786 8.16667 19.6829 8.16667 19.3746C8.16667 19.0663 8.04375 18.7706 7.82496 18.5526C7.60617 18.3346 7.30942 18.2121 7 18.2121H6.22222ZM11.6667 18.2121C11.3572 18.2121 11.0605 18.3346 10.8417 18.5526C10.6229 18.7706 10.5 19.0663 10.5 19.3746C10.5 19.6829 10.6229 19.9786 10.8417 20.1966C11.0605 20.4146 11.3572 20.5371 11.6667 20.5371H21.7778C22.0872 20.5371 22.3839 20.4146 22.6027 20.1966C22.8215 19.9786 22.9444 19.6829 22.9444 19.3746C22.9444 19.0663 22.8215 18.7706 22.6027 18.5526C22.3839 18.3346 22.0872 18.2121 21.7778 18.2121H11.6667Z" />
</svg>
