<svg width="31" height="31" viewBox="0 0 31 31" fill="#202E05" xmlns="http://www.w3.org/2000/svg">
<path d="M0 24.5396V27.125C0 29.2623 5.20703 31 11.625 31C18.043 31 23.25 29.2623 23.25 27.125V24.5396C20.7494 26.3016 16.1781 27.125 11.625 27.125C7.07188 27.125 2.50059 26.3016 0 24.5396ZM19.375 7.75C25.793 7.75 31 6.0123 31 3.875C31 1.7377 25.793 0 19.375 0C12.957 0 7.75 1.7377 7.75 3.875C7.75 6.0123 12.957 7.75 19.375 7.75ZM0 18.1883V21.3125C0 23.4498 5.20703 25.1875 11.625 25.1875C18.043 25.1875 23.25 23.4498 23.25 21.3125V18.1883C20.7494 20.2469 16.1721 21.3125 11.625 21.3125C7.07793 21.3125 2.50059 20.2469 0 18.1883ZM25.1875 18.8543C28.6568 18.1822 31 16.935 31 15.5V12.9146C29.5953 13.9076 27.5307 14.5857 25.1875 15.0035V18.8543ZM11.625 9.6875C5.20703 9.6875 0 11.8551 0 14.5312C0 17.2074 5.20703 19.375 11.625 19.375C18.043 19.375 23.25 17.2074 23.25 14.5312C23.25 11.8551 18.043 9.6875 11.625 9.6875ZM24.9029 13.0963C28.5357 12.4424 31 11.1588 31 9.6875V7.10215C28.8506 8.62188 25.1572 9.43926 21.2701 9.63301C23.0562 10.4988 24.3701 11.6613 24.9029 13.0963Z" />
</svg>
