<svg width="31" height="31" viewBox="0 0 31 31" fill="#1A4963" xmlns="http://www.w3.org/2000/svg">
<path d="M26.1053 13.0507C26.1046 10.3284 25.2529 7.67438 23.6694 5.46009C22.0859 3.2458 19.8498 1.58202 17.2741 0.701569C14.6983 -0.178879 11.9118 -0.23194 9.30441 0.549812C6.69701 1.33156 4.39924 2.90901 2.73261 5.06141C1.06598 7.21382 0.113898 9.83347 0.00959048 12.5538C-0.0947173 15.2741 0.653969 17.959 2.15088 20.2327C3.6478 22.5065 5.81803 24.2553 8.3579 25.2344C10.8978 26.2136 13.6802 26.3741 16.3158 25.6935V19.5777C16.3158 18.2794 16.8315 17.0343 17.7494 16.1163C18.6674 15.1982 19.9124 14.6825 21.2105 14.6825H26.0041C26.0716 14.1412 26.1054 13.5962 26.1053 13.0507ZM11.4211 5.70782C11.4207 5.50394 11.4966 5.30731 11.634 5.15664C11.7713 5.00598 11.9601 4.9122 12.1631 4.89378C12.3662 4.87536 12.5687 4.93363 12.7309 5.05711C12.8932 5.18059 13.0033 5.36034 13.0396 5.56096L13.0526 5.70782V13.0507H17.1316C17.3354 13.0503 17.5321 13.1263 17.6827 13.2637C17.8333 13.401 17.9271 13.5898 17.9455 13.7929C17.964 13.9959 17.9057 14.1985 17.7822 14.3607C17.6588 14.523 17.479 14.6331 17.2784 14.6694L17.1316 14.6825H12.2368C12.0459 14.6825 11.861 14.6156 11.7143 14.4934C11.5676 14.3711 11.4685 14.2013 11.4341 14.0134L11.4211 13.8666V5.70782ZM27.7368 16.3142H21.2105C20.3451 16.3142 19.5151 16.6581 18.9031 17.2701C18.2912 17.8821 17.9474 18.7122 17.9474 19.5777V27.7365C17.9474 28.602 18.2912 29.4321 18.9031 30.0441C19.5151 30.6562 20.3451 31 21.2105 31H27.7368C28.6023 31 29.4323 30.6562 30.0442 30.0441C30.6562 29.4321 31 28.602 31 27.7365V19.5777C31 18.7122 30.6562 17.8821 30.0442 17.2701C29.4323 16.6581 28.6023 16.3142 27.7368 16.3142ZM26.9211 27.7365H22.0263C21.81 27.7365 21.6025 27.6505 21.4495 27.4975C21.2965 27.3445 21.2105 27.137 21.2105 26.9206C21.2105 26.7042 21.2965 26.4967 21.4495 26.3437C21.6025 26.1907 21.81 26.1047 22.0263 26.1047H26.9211C27.1374 26.1047 27.3449 26.1907 27.4979 26.3437C27.6509 26.4967 27.7368 26.7042 27.7368 26.9206C27.7368 27.137 27.6509 27.3445 27.4979 27.4975C27.3449 27.6505 27.1374 27.7365 26.9211 27.7365ZM26.9211 24.473H22.0263C21.81 24.473 21.6025 24.387 21.4495 24.234C21.2965 24.081 21.2105 23.8735 21.2105 23.6571C21.2105 23.4407 21.2965 23.2332 21.4495 23.0802C21.6025 22.9272 21.81 22.8412 22.0263 22.8412H26.9211C27.1374 22.8412 27.3449 22.9272 27.4979 23.0802C27.6509 23.2332 27.7368 23.4407 27.7368 23.6571C27.7368 23.8735 27.6509 24.081 27.4979 24.234C27.3449 24.387 27.1374 24.473 26.9211 24.473ZM26.9211 21.2095H22.0263C21.81 21.2095 21.6025 21.1235 21.4495 20.9705C21.2965 20.8175 21.2105 20.61 21.2105 20.3936C21.2105 20.1772 21.2965 19.9697 21.4495 19.8167C21.6025 19.6637 21.81 19.5777 22.0263 19.5777H26.9211C27.1374 19.5777 27.3449 19.6637 27.4979 19.8167C27.6509 19.9697 27.7368 20.1772 27.7368 20.3936C27.7368 20.61 27.6509 20.8175 27.4979 20.9705C27.3449 21.1235 27.1374 21.2095 26.9211 21.2095Z"/>
</svg>
